<svg xmlns="http://www.w3.org/2000/svg" xmlns:xlink="http://www.w3.org/1999/xlink" id="Capa_1" x="0px" y="0px" viewBox="0 0 644 277.07" style="enable-background:new 0 0 644 277.07;" xml:space="preserve"><style type="text/css">	.st0{fill:#FFFFFF;}</style><g>	<g>		<path class="st0" d="M641.81,165.37c0,0.44-0.14,0.8-0.43,1.09c-0.29,0.29-0.65,0.43-1.09,0.43h-8.76v8.71   c0,0.44-0.14,0.8-0.43,1.09c-0.29,0.29-0.65,0.43-1.09,0.43c-0.44,0-0.8-0.14-1.09-0.43c-0.29-0.29-0.43-0.65-0.43-1.09v-8.71   h-8.76c-0.44,0-0.8-0.14-1.09-0.43c-0.29-0.29-0.43-0.65-0.43-1.09c0-0.47,0.14-0.85,0.43-1.14c0.29-0.29,0.65-0.43,1.09-0.43   h8.76v-8.71c0-0.44,0.14-0.8,0.43-1.09c0.29-0.29,0.65-0.43,1.09-0.43c0.44,0,0.8,0.14,1.09,0.43c0.29,0.29,0.43,0.65,0.43,1.09   v8.71h8.76c0.44,0,0.8,0.14,1.09,0.43C641.66,164.52,641.81,164.9,641.81,165.37z"></path>		<path class="st0" d="M628.9,252.66c-0.54-1.07-1.26-1.92-2.18-2.53c-0.92-0.62-1.95-0.93-3.09-0.93c-1.42,0-2.68,0.34-3.77,1.03   c-1.1,0.69-1.95,1.63-2.57,2.83c-0.62,1.2-0.93,2.59-0.93,4.18v8.35c0,0.51,0.17,0.94,0.51,1.3c0.34,0.35,0.77,0.52,1.31,0.52   h23.66c0.51,0,0.94-0.17,1.29-0.52c0.35-0.35,0.52-0.78,0.52-1.3v-9.08c0-1.75-0.36-3.3-1.07-4.65s-1.68-2.41-2.92-3.16   c-1.23-0.76-2.66-1.13-4.26-1.13c-1.77,0-3.2,0.47-4.3,1.4C630.01,249.89,629.27,251.12,628.9,252.66z M619.71,263.77v-6.53   c0-1.33,0.32-2.42,0.96-3.27c0.64-0.85,1.62-1.28,2.95-1.28s2.32,0.43,2.97,1.28c0.65,0.85,0.98,1.94,0.98,3.27v6.53H619.71z    M638.09,251.75c0.72,0.47,1.27,1.11,1.64,1.92c0.37,0.81,0.56,1.76,0.56,2.83v7.27h-9.37v-7.27c0-1.07,0.17-2.02,0.51-2.83   c0.34-0.81,0.83-1.46,1.49-1.92c0.65-0.47,1.48-0.7,2.48-0.7C636.47,251.05,637.37,251.28,638.09,251.75z"></path>		<path class="st0" d="M617.51,224.49c-0.77,1.35-1.15,2.9-1.15,4.65v6.99c0,0.51,0.17,0.94,0.51,1.3c0.34,0.35,0.77,0.52,1.31,0.52   h23.66c0.51,0,0.94-0.17,1.29-0.52c0.35-0.35,0.52-0.78,0.52-1.3c0-0.54-0.17-0.97-0.52-1.31c-0.35-0.34-0.78-0.51-1.29-0.51   h-7.65v-5.17c0-1.75-0.37-3.3-1.12-4.65c-0.75-1.35-1.78-2.41-3.11-3.16c-1.33-0.76-2.84-1.14-4.54-1.14   c-1.77,0-3.34,0.38-4.7,1.14C619.34,222.09,618.28,223.14,617.51,224.49z M628.2,224.39c0.82,0.47,1.46,1.11,1.92,1.92   c0.47,0.82,0.7,1.76,0.7,2.83v5.17h-11.11v-5.17c0-1.07,0.25-2.01,0.73-2.83c0.49-0.81,1.16-1.46,2.01-1.92   c0.85-0.47,1.84-0.7,2.95-0.7C626.45,223.69,627.39,223.92,628.2,224.39z"></path>		<path class="st0" d="M619.94,189.37c-1.25,1.24-2.21,2.7-2.9,4.39c-0.69,1.69-1.03,3.56-1.03,5.61c0,2.05,0.35,3.93,1.03,5.62   c0.69,1.7,1.65,3.16,2.9,4.39c1.25,1.22,2.72,2.17,4.42,2.85c1.7,0.68,3.58,1.01,5.63,1.01c2.05,0,3.93-0.34,5.64-1.01   c1.71-0.68,3.19-1.62,4.44-2.85c1.25-1.22,2.21-2.69,2.9-4.39c0.69-1.7,1.03-3.58,1.03-5.62c0-2.05-0.35-3.92-1.03-5.61   c-0.69-1.69-1.65-3.15-2.9-4.39c-1.25-1.23-2.73-2.19-4.44-2.86c-1.71-0.68-3.6-1.01-5.64-1.01c-2.05,0-3.93,0.34-5.63,1.01   C622.66,187.18,621.19,188.14,619.94,189.37z M634.21,189.74c1.31,0.5,2.44,1.22,3.41,2.15c0.97,0.93,1.72,2.03,2.27,3.3   c0.55,1.27,0.82,2.66,0.82,4.18c0,1.51-0.27,2.9-0.82,4.18c-0.55,1.27-1.31,2.37-2.27,3.29c-0.97,0.92-2.1,1.64-3.41,2.15   c-1.3,0.51-2.71,0.77-4.23,0.77c-1.52,0-2.92-0.25-4.23-0.77c-1.3-0.51-2.44-1.23-3.41-2.15c-0.97-0.92-1.72-2.02-2.25-3.29   c-0.54-1.27-0.8-2.66-0.8-4.18c0-1.52,0.27-2.91,0.8-4.18c0.54-1.27,1.29-2.37,2.25-3.3c0.97-0.93,2.1-1.65,3.41-2.15   c1.31-0.5,2.71-0.75,4.23-0.75C631.5,188.99,632.91,189.24,634.21,189.74z"></path>	</g>	<path class="st0" d="M127.03,158.91c-1.79,0-3.21,0.32-4.26,0.97c-1.05,0.65-1.97,1.87-2.76,3.66L81.7,253.76l-37.58-90.21  c-1.3-3.09-3.69-4.63-7.17-4.63c-3.09,0-5.18,1.1-6.27,3.29c-1.1,2.19-0.95,4.98,0.45,8.36L74.9,270.65  c1.49,3.29,3.83,4.93,7.02,4.93c1.69,0,3.11-0.42,4.26-1.27c1.14-0.85,2.07-2.07,2.76-3.66l44.21-101.43  c1.2-2.59,1.22-4.95,0.08-7.1C132.08,159.99,130.02,158.91,127.03,158.91z"></path>	<path class="st0" d="M195.6,164.14c-1.3-3.48-3.73-5.23-7.32-5.23c-3.39,0-5.83,1.74-7.32,5.23l-41.98,100.23  c-1.19,2.69-1.05,5.23,0.45,7.62c1.49,2.39,3.63,3.59,6.42,3.59c1.39,0,2.76-0.4,4.11-1.2c1.34-0.8,2.36-1.99,3.06-3.59l8.56-20.91  h53.53l8.42,20.91c0.6,1.5,1.57,2.67,2.91,3.51c1.34,0.85,2.76,1.27,4.26,1.27c2.89,0,5.05-1.12,6.5-3.36  c1.44-2.24,1.62-4.75,0.52-7.54L195.6,164.14z M166.83,237.04l21.72-53.1l21.38,53.1H166.83z"></path>	<path class="st0" d="M455.51,174.23c-5.28-5.33-11.53-9.46-18.75-12.4c-7.22-2.94-15.21-4.41-23.98-4.41  c-8.76,0-16.78,1.47-24.05,4.41c-7.27,2.94-13.52,7.07-18.75,12.4c-5.23,5.33-9.29,11.63-12.17,18.9  c-2.89,7.27-4.33,15.29-4.33,24.05c0,8.76,1.44,16.8,4.33,24.12c2.89,7.32,6.94,13.65,12.17,18.97c5.23,5.33,11.48,9.46,18.75,12.4  c7.27,2.94,15.28,4.41,24.05,4.41c8.76,0,16.75-1.47,23.98-4.41c7.22-2.94,13.47-7.07,18.75-12.4c5.28-5.33,9.36-11.65,12.25-18.97  c2.89-7.32,4.33-15.36,4.33-24.12c0-8.76-1.44-16.78-4.33-24.05C464.87,185.85,460.79,179.55,455.51,174.23z M453.94,235.25  c-2.14,5.58-5.21,10.43-9.19,14.57c-3.99,4.13-8.69,7.37-14.12,9.71c-5.43,2.34-11.38,3.51-17.85,3.51  c-6.47,0-12.42-1.17-17.85-3.51c-5.43-2.34-10.11-5.57-14.04-9.71c-3.93-4.13-7-8.99-9.19-14.57c-2.19-5.57-3.29-11.6-3.29-18.07  c0-6.47,1.1-12.5,3.29-18.08c2.19-5.58,5.25-10.43,9.19-14.57c3.93-4.13,8.61-7.34,14.04-9.63c5.43-2.29,11.38-3.44,17.85-3.44  c6.47,0,12.42,1.15,17.85,3.44c5.43,2.29,10.13,5.5,14.12,9.63c3.98,4.13,7.04,8.99,9.19,14.57c2.14,5.58,3.21,11.6,3.21,18.08  C457.15,223.65,456.08,229.67,453.94,235.25z"></path>	<path class="st0" d="M581.13,263.63l-22.82-36.73c0.54-0.25,1.08-0.49,1.61-0.76c5.77-2.99,10.28-7.12,13.52-12.4  c3.24-5.28,4.85-11.3,4.85-18.08c0-7.27-1.62-13.64-4.85-19.12c-3.24-5.47-7.74-9.78-13.52-12.92c-5.78-3.14-12.4-4.71-19.87-4.71  h-26.89c-2.19,0-4.03,0.72-5.53,2.17c-1.49,1.44-2.24,3.31-2.24,5.6v101.13c0,2.19,0.75,4.03,2.24,5.53  c1.49,1.49,3.33,2.24,5.53,2.24c2.29,0,4.16-0.75,5.6-2.24c1.44-1.49,2.17-3.34,2.17-5.53v-37.2h19.12c0.93,0,1.85-0.02,2.75-0.07  l25.63,41.3c0.8,1.29,1.77,2.24,2.91,2.84c1.14,0.6,2.41,0.9,3.81,0.9c3.19,0,5.43-1.27,6.72-3.81  C583.17,269.23,582.93,266.52,581.13,263.63z M520.94,216.28v-43.02h19.12c4.58,0,8.61,0.95,12.1,2.84  c3.48,1.89,6.22,4.53,8.22,7.92c1.99,3.39,2.99,7.27,2.99,11.65c0,3.99-1,7.54-2.99,10.68c-1.99,3.14-4.73,5.58-8.22,7.32  c-3.49,1.74-7.52,2.62-12.1,2.62H520.94z"></path>	<path class="st0" d="M279.9,166.75c0-4.26-3.46-7.72-7.72-7.72c-4.26,0-7.72,3.46-7.72,7.72h15.39H279.9z"></path>			<ellipse transform="matrix(0.0498 -0.9988 0.9988 0.0498 114.5797 408.8727)" class="st0" cx="272.18" cy="144.22" rx="7.72" ry="7.72"></ellipse>	<path class="st0" d="M333.92,259.58h-54.07v-92.82c-0.27,4.02-3.58,7.72-7.67,7.72c-4.26,0-7.72-3.46-7.72-7.72v100.59  c0,2.19,0.72,4.03,2.17,5.53c1.44,1.49,3.26,2.24,5.45,2.24h61.84c2.19,0,4.03-0.75,5.53-2.24c1.49-1.49,2.24-3.34,2.24-5.53  c0-2.19-0.75-4.03-2.24-5.53C337.95,260.32,336.11,259.58,333.92,259.58z"></path>	<path class="st0" d="M264.46,122.31L264.46,122.31c0-0.1,0.03-0.2,0.03-0.3c0.17,4.11,3.53,7.4,7.69,7.4  c4.24,0,7.67-3.42,7.71-7.64c0,0,0.01,0.01,0.01,0l0-0.07c0,0,0,0,0-0.01h0l0.04-44.55V8.96c0-2.29-0.7-4.14-2.09-5.53  c-1.39-1.39-3.24-2.09-5.53-2.09c-2.2,0-4.01,0.7-5.46,2.09c-1.44,1.39-2.17,3.24-2.17,5.53v40.36c-3.38-4.19-7.57-7.5-12.55-9.94  c-4.99-2.44-10.42-3.66-16.3-3.66c-7.27,0-13.8,1.82-19.58,5.45c-5.78,3.64-10.34,8.58-13.68,14.8  c-3.34,6.23-5.01,13.28-5.01,21.15c0,7.88,1.81,14.95,5.46,21.23c3.63,6.28,8.57,11.24,14.8,14.87c6.23,3.64,13.23,5.46,21.01,5.46  s14.75-1.82,20.93-5.46c0,0,3.81-2.31,4.71-3.92V122.31z M272.04,114.84c3.92,0,7.49,3.01,7.82,6.84h-15.34  C264.86,117.84,268.12,114.84,272.04,114.84z M261.84,91.49c-2.29,4.29-5.44,7.65-9.42,10.09c-3.99,2.44-8.52,3.67-13.6,3.67  c-4.99,0-9.5-1.22-13.53-3.67c-4.04-2.44-7.23-5.8-9.57-10.09c-2.34-4.28-3.51-9.07-3.51-14.36c0-5.38,1.17-10.16,3.51-14.35  c2.34-4.18,5.53-7.5,9.57-9.94c4.03-2.44,8.54-3.67,13.53-3.67c5.08,0,9.61,1.22,13.6,3.67c3.98,2.44,7.13,5.75,9.42,9.94  c1.3,2.38,2.19,4.97,2.75,7.73l0.07,0.41c0.38,1.98,0.61,4.03,0.61,6.21c0,2.15-0.24,4.2-0.62,6.18c-0.01,0.07-0.11,0.63-0.11,0.63  C263.98,86.61,263.1,89.13,261.84,91.49z"></path>	<path class="st0" d="M63.83,114.36c0.81,1.31,1.79,2.27,2.95,2.87c1.16,0.6,2.45,0.91,3.86,0.91c3.22,0,5.5-1.29,6.8-3.86  c1.31-2.57,1.06-5.32-0.75-8.25L53.56,68.79c0.55-0.25,1.12-0.45,1.66-0.72c5.84-3.02,10.41-7.21,13.69-12.55  c3.28-5.34,4.92-11.44,4.92-18.3c0-7.36-1.64-13.81-4.92-19.36c-3.28-5.54-7.84-9.91-13.69-13.08C49.36,1.59,42.66,0,35.09,0H7.86  C5.65,0,3.78,0.74,2.27,2.2C0.76,3.65,0,5.55,0,7.87v102.41c0,2.22,0.76,4.09,2.27,5.59c1.51,1.51,3.38,2.27,5.59,2.27  c2.32,0,4.21-0.76,5.68-2.27c1.46-1.51,2.19-3.38,2.19-5.59V72.61h19.36c0.94,0,1.83-0.09,2.74-0.14L63.83,114.36z M15.73,58.09  V14.52h19.36c4.64,0,8.72,0.96,12.25,2.88c3.53,1.92,6.3,4.59,8.32,8.02c2.01,3.43,3.03,7.36,3.03,11.8  c0,4.04-1.01,7.64-3.03,10.82c-2.02,3.18-4.79,5.65-8.32,7.41c-3.54,1.76-7.61,2.65-12.25,2.65H15.73z"></path>	<path class="st0" d="M119.72,113.37c6.51,3.58,13.94,5.37,22.32,5.37c4.64,0,9.5-0.86,14.6-2.57c5.09-1.72,9.35-3.93,12.78-6.66  c1.71-1.31,2.52-2.88,2.42-4.69c-0.1-1.81-1.01-3.48-2.72-4.99c-1.31-1.11-2.85-1.64-4.61-1.59c-1.76,0.05-3.4,0.63-4.92,1.74  c-2.02,1.51-4.66,2.85-7.94,4.01c-3.28,1.16-6.48,1.74-9.6,1.74c-5.75,0-10.84-1.26-15.28-3.79c-4.44-2.52-7.92-5.95-10.44-10.28  c-1.69-2.9-2.76-6.09-3.32-9.53h57.47c2.02,0,3.68-0.63,4.99-1.89c1.31-1.26,1.97-2.85,1.97-4.77c0-7.96-1.49-14.99-4.46-21.1  c-2.97-6.1-7.29-10.89-12.93-14.37c-5.65-3.48-12.41-5.22-20.27-5.22c-7.97,0-15.03,1.79-21.18,5.37  c-6.15,3.58-10.96,8.52-14.44,14.82c-3.48,6.31-5.22,13.59-5.22,21.86c0,8.17,1.84,15.41,5.52,21.71  C108.13,104.85,113.22,109.79,119.72,113.37z M125.02,51.58c4.08-2.52,9-3.78,14.74-3.78c5.04,0,9.33,1.16,12.86,3.48  c3.53,2.32,6.25,5.47,8.17,9.46c1.36,2.83,2.24,5.94,2.68,9.3h-50.31c0.52-2.88,1.34-5.59,2.55-8.09  C117.83,57.55,120.94,54.1,125.02,51.58z"></path></g></svg>